<?xml version="1.0" encoding="UTF-8"?>
<svg xmlns="http://www.w3.org/2000/svg" viewBox="0 0 5000 5000">
  <defs>
    <style>
      .cls-1 {
        fill: none;
        stroke-width: 100px;
      }

      .cls-1, .cls-2 {
        stroke: #1d2d44;
        stroke-miterlimit: 10;
      }

      .cls-3 {
        fill: #f53993;
      }

      .cls-3, .cls-4 {
        stroke-width: 0px;
      }

      .cls-2 {
        fill: #d898c3;
      }

      .cls-4 {
        fill: #1d2d44;
      }
    </style>
  </defs>
  <g id="Ebene_2" data-name="Ebene 2">
    <g>
      <circle class="cls-2" cx="2503.43" cy="2503.43" r="2402.73"/>
      <circle class="cls-1" cx="2503.43" cy="2503.43" r="2402.73"/>
    </g>
  </g>
  <g id="Ebene_3" data-name="Ebene 3">
    <g>
      <path class="cls-3" d="M2249.7,1919.21l454.06-198.65c68.64-30.03,144.54,23.9,138.76,98.6-13.33,104.97-267.41,2106.62-267.41,2106.63h0s16.76,34.36,17.74,36.34c14.55,29.47,75.14,62.41,128.81,75.73,130.71,32.44,278.45-37.06,305.37-50.11,5.79-1.54,13.08-4.05,20.98-8.24,6.64-3.52,12.87-7.8,18.58-12.76h0c76.58-66.59,191.88,11.12,159.02,107.13-3.91,11.42-6.78,19.85-8.27,24.33-11.67,35.02-265.67,238.61-315.01,277.91-2.86,2.28-5.82,4.38-8.89,6.31-4.64,2.92-8.31,4.68-8.9,4.98-34.18,16.85-91.42,61.85-91.42,61.86-24.23,19.05-73.8,43.06-183.4,66.83-.12-.01-19.33-2.04-19.46-2.05-9.73-1.02-19.46-2.05-19.46-2.05-8-2.9-42.13-15.27-42.13-15.27-34.26-9.58-256.76-75.72-353.5-295.4-50.37-114.38-44.48-220.07-37.42-273.8.01-.08,36.33-230.24,58.05-385.34,68.73-490.79,101.9-1019.78,102.92-1029.44.36-3.45.53-6.77.53-10.24v-110.39c0-56.72-47.45-101.91-104.1-99.15l-321.96,15.71c-56.65,2.76-104.1-42.43-104.1-99.15v-153.57c0-51.63,39.57-94.63,91.02-98.92,129.87-12.61,259.73-25.21,389.6-37.82Z"/>
      <path class="cls-4" d="M2611.54,4551.68l-48.7-5.16-44.95-16.28c-65.1-18.41-277.78-94.12-374.92-314.73-50.01-113.56-49.41-221.78-40.1-292.56l.19-1.28c3.76-23.87,37.33-237.47,57.9-384.36,54.21-387.13,86.91-800.15,101.58-1011.89.68-9.8,1.09-15.4,1.18-16.35.23-2.17.34-4.25.34-6.56v-110.39c0-17.71-7.07-34.19-19.89-46.41-12.82-12.21-29.58-18.41-47.32-17.6l-321.96,15.7c-37.1,1.8-72.36-11.3-99.26-36.93-26.9-25.62-41.72-60.19-41.72-97.35v-153.57c0-69.37,54.15-128.21,123.27-133.97l383.55-37.23,448.93-196.41c43.65-19.11,92.92-14.03,131.76,13.58,38.84,27.61,59.83,72.45,56.16,119.96l-.18,1.71-263.02,2072.08c-1.31,10.24-2.29,18.03-3.11,24.05,5.02,10.29,12.47,25.55,13.11,26.85,6.92,14.01,52.63,43.97,105.74,57.14,112.47,27.92,243.94-29.39,281.55-47.62l3.02-1.46,3.25-.87c4.7-1.25,9.25-3.04,13.55-5.32,4.3-2.28,8.34-5.06,12.01-8.25,46.5-40.43,112.09-44.48,163.21-10.07,51.17,34.44,72.13,96.78,52.16,155.14-3.86,11.29-6.7,19.63-8.17,24.05-4.26,12.76-15.55,46.65-326.47,294.31-3.83,3.05-7.89,5.94-12.06,8.57-4.01,2.52-8.21,4.87-12.17,6.8-25.2,12.42-70.02,46.03-85.16,57.92-36.26,28.51-100.93,52.56-197.68,73.55l-5.62,1.22ZM2593.94,4479.07c2.23.23,8.85.92,13.79,1.44,101.83-22.51,145.19-44.4,163.65-58.9,2.45-1.93,60.55-47.49,97.6-65.75,1.89-.92,3.9-2.05,5.74-3.2,1.94-1.22,3.85-2.58,5.67-4.03,160.97-128.22,288.02-238.28,304.24-263.49,1.62-4.83,4.27-12.59,7.71-22.65,11.74-34.31-5.15-60.73-24.88-74.01-19.7-13.25-50.47-18.94-77.78,4.8-7.69,6.69-16.16,12.5-25.17,17.29-7.94,4.22-16.33,7.65-24.97,10.2-57.02,27.27-196.83,83.37-326.34,51.23-48.25-11.98-128.52-46.97-151.89-94.3-.99-2-17.81-36.49-17.81-36.49l-8.85-18.14,6.61-9.92c10.65-83.92,101.33-798.27,175.03-1378.86l91.22-718.63c1.47-22.36-8.52-43.41-26.83-56.42-18.51-13.16-42-15.58-62.82-6.47l-459.18,200.9-395.17,38.36c-33.43,2.79-59.25,30.84-59.25,63.91v153.57c0,17.71,7.07,34.19,19.89,46.41,12.83,12.21,29.66,18.52,47.32,17.6l321.96-15.7c37.09-1.81,72.36,11.3,99.26,36.93,26.9,25.62,41.72,60.19,41.72,97.35v110.39c0,4.76-.24,9.32-.72,13.93-.08,1-.41,5.84-.97,13.84-14.74,212.66-47.59,627.53-102.09,1016.78-20.65,147.47-54.31,361.62-58.08,385.55-8.07,61.39-8.65,155.87,34.8,254.54,85.36,193.85,274.76,260.04,330.78,275.7l2.51.8,38.1,13.8,15.2,1.61Z"/>
    </g>
    <g>
      <circle class="cls-3" cx="2500.22" cy="1004.29" r="427.11"/>
      <path class="cls-4" d="M2500.21,1466.57c-254.9,0-462.28-207.38-462.28-462.28s207.38-462.28,462.28-462.28,462.29,207.38,462.29,462.28-207.38,462.28-462.29,462.28ZM2500.21,612.36c-216.11,0-391.93,175.82-391.93,391.93s175.82,391.94,391.93,391.94,391.94-175.82,391.94-391.94-175.83-391.93-391.94-391.93Z"/>
    </g>
  </g>
</svg>